<mxfile host="app.diagrams.net" modified="2021-07-12T10:06:15.118Z" agent="5.0 (Windows NT 10.0; Win64; x64) AppleWebKit/537.36 (KHTML, like Gecko) Chrome/91.0.4472.124 Safari/537.36" etag="en6NaZsnonCHDGl8Zs4j" version="14.8.5" type="github">
  <diagram id="1nd5Z5Q6Oo7PBhE3J_bV" name="第 1 页">
    <mxGraphModel dx="1422" dy="800" grid="1" gridSize="10" guides="1" tooltips="1" connect="1" arrows="1" fold="1" page="1" pageScale="1" pageWidth="827" pageHeight="1169" background="#182E3E" math="0" shadow="0">
      <root>
        <mxCell id="0" />
        <mxCell id="1" parent="0" />
        <mxCell id="duVSveYrcLi3O6U5zXyq-9" style="edgeStyle=orthogonalEdgeStyle;rounded=1;sketch=1;orthogonalLoop=1;jettySize=auto;html=1;entryX=0.5;entryY=0;entryDx=0;entryDy=0;fontColor=#FFFFFF;curved=1;fillColor=#d5e8d4;strokeColor=#00A800;" edge="1" parent="1" source="duVSveYrcLi3O6U5zXyq-1" target="duVSveYrcLi3O6U5zXyq-2">
          <mxGeometry relative="1" as="geometry" />
        </mxCell>
        <mxCell id="duVSveYrcLi3O6U5zXyq-11" style="edgeStyle=orthogonalEdgeStyle;sketch=1;orthogonalLoop=1;jettySize=auto;html=1;entryX=0.5;entryY=0;entryDx=0;entryDy=0;fontColor=#FFFFFF;exitX=0.5;exitY=1;exitDx=0;exitDy=0;curved=1;fillColor=#d5e8d4;strokeColor=#00A800;" edge="1" parent="1" source="duVSveYrcLi3O6U5zXyq-1" target="duVSveYrcLi3O6U5zXyq-4">
          <mxGeometry relative="1" as="geometry">
            <Array as="points">
              <mxPoint x="120" y="350" />
              <mxPoint x="360" y="350" />
            </Array>
          </mxGeometry>
        </mxCell>
        <mxCell id="duVSveYrcLi3O6U5zXyq-1" value="&lt;font face=&quot;Otomanopee One&quot; data-font-src=&quot;https://fonts.googleapis.com/css?family=Otomanopee+One&quot; style=&quot;font-size: 24px&quot; color=&quot;#f5f5f5&quot;&gt;Serial&lt;/font&gt;" style="whiteSpace=wrap;html=1;fontColor=#1A1A1A;strokeColor=#FFFFFF;sketch=1;rounded=1;fillColor=#00A800;" vertex="1" parent="1">
          <mxGeometry x="60" y="150" width="120" height="60" as="geometry" />
        </mxCell>
        <mxCell id="duVSveYrcLi3O6U5zXyq-16" style="edgeStyle=orthogonalEdgeStyle;curved=1;sketch=1;orthogonalLoop=1;jettySize=auto;html=1;entryX=0;entryY=0.5;entryDx=0;entryDy=0;fontColor=#FFFFFF;exitX=0.5;exitY=1;exitDx=0;exitDy=0;strokeColor=#FF00FF;" edge="1" parent="1" source="duVSveYrcLi3O6U5zXyq-2" target="duVSveYrcLi3O6U5zXyq-4">
          <mxGeometry relative="1" as="geometry" />
        </mxCell>
        <mxCell id="duVSveYrcLi3O6U5zXyq-2" value="&lt;font face=&quot;Otomanopee One&quot; data-font-src=&quot;https://fonts.googleapis.com/css?family=Otomanopee+One&quot; style=&quot;font-size: 24px&quot; color=&quot;#f5f5f5&quot;&gt;CMS&lt;/font&gt;" style="whiteSpace=wrap;html=1;fontColor=#1A1A1A;strokeColor=#FFFFFF;sketch=1;rounded=1;fillColor=#FF00FF;" vertex="1" parent="1">
          <mxGeometry x="60" y="390" width="120" height="60" as="geometry" />
        </mxCell>
        <mxCell id="duVSveYrcLi3O6U5zXyq-12" style="edgeStyle=orthogonalEdgeStyle;curved=1;sketch=1;orthogonalLoop=1;jettySize=auto;html=1;entryX=0.5;entryY=0;entryDx=0;entryDy=0;fontColor=#FFFFFF;strokeColor=#B8B800;" edge="1" parent="1" source="duVSveYrcLi3O6U5zXyq-3" target="duVSveYrcLi3O6U5zXyq-2">
          <mxGeometry relative="1" as="geometry">
            <Array as="points">
              <mxPoint x="360" y="260" />
              <mxPoint x="120" y="260" />
            </Array>
          </mxGeometry>
        </mxCell>
        <mxCell id="duVSveYrcLi3O6U5zXyq-13" style="edgeStyle=orthogonalEdgeStyle;curved=1;sketch=1;orthogonalLoop=1;jettySize=auto;html=1;entryX=0.5;entryY=0;entryDx=0;entryDy=0;fontColor=#FFFFFF;strokeColor=#B8B800;" edge="1" parent="1" source="duVSveYrcLi3O6U5zXyq-3" target="duVSveYrcLi3O6U5zXyq-4">
          <mxGeometry relative="1" as="geometry" />
        </mxCell>
        <mxCell id="duVSveYrcLi3O6U5zXyq-3" value="&lt;font face=&quot;Otomanopee One&quot; data-font-src=&quot;https://fonts.googleapis.com/css?family=Otomanopee+One&quot; style=&quot;font-size: 24px&quot; color=&quot;#f5f5f5&quot;&gt;ParNew&lt;/font&gt;" style="whiteSpace=wrap;html=1;fontColor=#1A1A1A;strokeColor=#FFFFFF;sketch=1;rounded=1;fillColor=#B8B800;" vertex="1" parent="1">
          <mxGeometry x="300" y="150" width="120" height="60" as="geometry" />
        </mxCell>
        <mxCell id="duVSveYrcLi3O6U5zXyq-4" value="&lt;font face=&quot;Otomanopee One&quot; data-font-src=&quot;https://fonts.googleapis.com/css?family=Otomanopee+One&quot; style=&quot;font-size: 24px&quot; color=&quot;#f5f5f5&quot;&gt;Serial Old&lt;/font&gt;" style="whiteSpace=wrap;html=1;fontColor=#1A1A1A;strokeColor=#FFFFFF;sketch=1;rounded=1;fillColor=#00A800;" vertex="1" parent="1">
          <mxGeometry x="300" y="525" width="120" height="60" as="geometry" />
        </mxCell>
        <mxCell id="duVSveYrcLi3O6U5zXyq-14" style="edgeStyle=orthogonalEdgeStyle;curved=1;sketch=1;orthogonalLoop=1;jettySize=auto;html=1;entryX=0.5;entryY=0;entryDx=0;entryDy=0;fontColor=#FFFFFF;strokeColor=#D90000;" edge="1" parent="1" source="duVSveYrcLi3O6U5zXyq-5" target="duVSveYrcLi3O6U5zXyq-6">
          <mxGeometry relative="1" as="geometry" />
        </mxCell>
        <mxCell id="duVSveYrcLi3O6U5zXyq-15" style="edgeStyle=orthogonalEdgeStyle;curved=1;sketch=1;orthogonalLoop=1;jettySize=auto;html=1;entryX=0.5;entryY=0;entryDx=0;entryDy=0;fontColor=#FFFFFF;exitX=0.5;exitY=1;exitDx=0;exitDy=0;strokeColor=#D90000;" edge="1" parent="1" source="duVSveYrcLi3O6U5zXyq-5" target="duVSveYrcLi3O6U5zXyq-4">
          <mxGeometry relative="1" as="geometry" />
        </mxCell>
        <mxCell id="duVSveYrcLi3O6U5zXyq-5" value="&lt;font face=&quot;Otomanopee One&quot; data-font-src=&quot;https://fonts.googleapis.com/css?family=Otomanopee+One&quot; style=&quot;font-size: 24px&quot; color=&quot;#f5f5f5&quot;&gt;Parallel&lt;br&gt;Scavenge&lt;br&gt;&lt;/font&gt;" style="whiteSpace=wrap;html=1;fontColor=#1A1A1A;strokeColor=#FFFFFF;sketch=1;rounded=1;fillColor=#D90000;" vertex="1" parent="1">
          <mxGeometry x="540" y="150" width="150" height="80" as="geometry" />
        </mxCell>
        <mxCell id="duVSveYrcLi3O6U5zXyq-6" value="&lt;font face=&quot;Otomanopee One&quot; data-font-src=&quot;https://fonts.googleapis.com/css?family=Otomanopee+One&quot; style=&quot;font-size: 24px&quot; color=&quot;#f5f5f5&quot;&gt;Parallel Old&lt;/font&gt;" style="whiteSpace=wrap;html=1;fontColor=#1A1A1A;strokeColor=#FFFFFF;sketch=1;rounded=1;fillColor=#D90000;" vertex="1" parent="1">
          <mxGeometry x="555" y="390" width="120" height="60" as="geometry" />
        </mxCell>
        <mxCell id="duVSveYrcLi3O6U5zXyq-7" value="&lt;font face=&quot;Otomanopee One&quot; data-font-src=&quot;https://fonts.googleapis.com/css?family=Otomanopee+One&quot; style=&quot;font-size: 24px&quot; color=&quot;#f5f5f5&quot;&gt;G1&lt;/font&gt;" style="whiteSpace=wrap;html=1;fontColor=#1A1A1A;strokeColor=#FFFFFF;sketch=1;rounded=1;fillColor=#99CCFF;" vertex="1" parent="1">
          <mxGeometry x="720" y="280" width="80" height="70" as="geometry" />
        </mxCell>
      </root>
    </mxGraphModel>
  </diagram>
</mxfile>
